<svg width="182" height="27" viewBox="0 0 182 27" fill="none" xmlns="http://www.w3.org/2000/svg">
<path fill-rule="evenodd" clip-rule="evenodd" d="M129.518 9.10882C128.945 9.38135 128.497 9.73934 128.174 10.1834C127.853 10.6275 127.642 11.0607 127.541 11.4848H134.818C134.576 10.5768 134.128 9.88571 133.474 9.4115C132.82 8.9376 132.08 8.70049 131.255 8.70049C130.671 8.70049 130.092 8.8366 129.518 9.10882V9.10882ZM138.894 14.2996H127.42C127.521 14.804 127.717 15.3332 128.009 15.8885C128.301 16.4432 128.738 16.9022 129.322 17.2652C129.906 17.6288 130.53 17.8099 131.194 17.8099C132.181 17.8099 132.961 17.6337 133.535 17.2804C134.108 16.9277 134.576 16.4379 134.939 15.8127L138.502 16.5691C137.857 18.1027 136.896 19.263 135.618 20.0495C134.34 20.8367 132.865 21.2298 131.194 21.2298C130.147 21.2298 129.151 21.038 128.205 20.6552C127.259 20.2717 126.433 19.722 125.729 19.0054C125.024 18.2891 124.471 17.4367 124.068 16.4482C123.665 15.4594 123.464 14.3901 123.464 13.24C123.464 12.0899 123.665 11.0209 124.068 10.0321C124.471 9.04355 125.029 8.19084 125.744 7.47456C126.459 6.75858 127.294 6.20357 128.25 5.81016C129.206 5.41674 130.208 5.21973 131.255 5.21973C132.241 5.21973 133.193 5.40649 134.108 5.77971C135.025 6.15323 135.834 6.68245 136.539 7.36859C137.244 8.05473 137.803 8.87668 138.215 9.83535C138.628 10.7934 138.854 11.8279 138.894 12.9373V14.2996Z" fill="#00466E"/>
<path fill-rule="evenodd" clip-rule="evenodd" d="M116.43 20.7762H112.203L105.922 5.64343H110.21L114.317 15.9033L118.423 5.64343H122.711L116.43 20.7762Z" fill="#00466E"/>
<path fill-rule="evenodd" clip-rule="evenodd" d="M97.0373 20.7762H92.9544V13.4054C92.9451 12.9095 92.9808 9.96633 95.0804 7.79385C96.0285 6.8128 97.7681 5.64343 100.674 5.64343H103.712V9.57913H100.674C99.4724 9.57913 98.6018 9.87528 98.0127 10.485C97.0451 11.4859 97.0358 13.2995 97.0361 13.3163C97.0367 13.3377 97.0373 13.3595 97.0373 13.3812V20.7762Z" fill="#00466E"/>
<path fill-rule="evenodd" clip-rule="evenodd" d="M80.8571 9.10882C80.2836 9.38135 79.8359 9.73934 79.5134 10.1834C79.1916 10.6275 78.9805 11.0607 78.8797 11.4848H86.1567C85.9151 10.5768 85.4668 9.88571 84.8129 9.4115C84.1588 8.9376 83.419 8.70049 82.5934 8.70049C82.0102 8.70049 81.4313 8.8366 80.8571 9.10882V9.10882ZM90.2334 14.2996H78.7585C78.8595 14.804 79.0555 15.3332 79.3476 15.8885C79.6396 16.4432 80.0774 16.9022 80.6612 17.2652C81.2447 17.6288 81.8691 17.8099 82.5329 17.8099C83.5195 17.8099 84.2998 17.6337 84.8737 17.2804C85.4473 16.9277 85.9151 16.4379 86.2776 15.8127L89.8409 16.5691C89.1963 18.1027 88.2352 19.263 86.9572 20.0495C85.6789 20.8367 84.204 21.2298 82.5329 21.2298C81.4862 21.2298 80.4897 21.038 79.5441 20.6552C78.5979 20.2717 77.7722 19.722 77.0678 19.0054C76.3634 18.2891 75.81 17.4367 75.4069 16.4482C75.0042 15.4594 74.803 14.3901 74.803 13.24C74.803 12.0899 75.0042 11.0209 75.4069 10.0321C75.81 9.04355 76.3681 8.19084 77.0827 7.47456C77.7977 6.75858 78.6332 6.20357 79.5891 5.81016C80.5452 5.41674 81.5467 5.21973 82.5934 5.21973C83.5796 5.21973 84.5314 5.40649 85.4473 5.77971C86.3635 6.15323 87.1733 6.68245 87.878 7.36859C88.5824 8.05473 89.1414 8.87668 89.5538 9.83535C89.9664 10.7934 90.1928 11.8279 90.2334 12.9373V14.2996Z" fill="#00466E"/>
<path fill-rule="evenodd" clip-rule="evenodd" d="M73.5969 20.7762H68.856L65.565 15.9943L62.3036 20.7762H57.5625L62.6357 13.4216L57.5625 5.64343H62.3036L65.565 10.7283L68.856 5.64343H73.5969L68.5237 13.4216L73.5969 20.7762Z" fill="#00466E"/>
<path fill-rule="evenodd" clip-rule="evenodd" d="M46.3019 17.7746C43.9505 17.7746 42.0444 15.7376 42.0444 13.2248C42.0444 10.712 43.9505 8.67505 46.3019 8.67505C47.8279 8.67505 49.1626 9.53553 49.9139 10.8245V15.0057C49.9139 15.1978 49.9253 15.387 49.9427 15.5744C49.197 16.8914 47.8474 17.7746 46.3019 17.7746M53.9952 15.0059V5.67392H49.9139V6.43092C48.7369 5.66802 47.3523 5.21991 45.8641 5.21991C41.6197 5.21991 38.1794 8.80383 38.1794 13.2249C38.1794 17.646 41.6197 21.23 45.8641 21.23C48.0009 21.23 49.9331 20.3201 51.3258 18.8536C52.4184 20.1457 54.0461 20.9692 55.8642 20.9692V16.8788C54.8339 16.8788 53.9952 16.0382 53.9952 15.0059" fill="#00466E"/>
<path fill-rule="evenodd" clip-rule="evenodd" d="M0 3.71597L3.6176 7.26369C3.9116 6.96526 4.41559 6.59456 4.67387 6.42469C6.13085 5.46057 7.83192 4.99188 9.59609 5.07003C13.7368 5.25244 17.1825 8.62605 17.4408 12.7498L22.5032 12.4341C22.2997 9.18484 20.8888 6.12383 18.5303 3.81497C16.1729 1.50732 13.0794 0.15711 9.81988 0.0135649C9.61719 0.00445414 9.4149 0 9.21322 0C6.58595 0.000202461 4.06113 0.756799 1.88468 2.19711C1.7733 2.26979 0.774041 2.92961 0 3.71597Z" fill="url(#paint0_linear)"/>
<path fill-rule="evenodd" clip-rule="evenodd" d="M17.4407 12.7498C17.5847 15.0512 16.7977 17.2387 15.2247 18.9095V18.9095C13.6504 20.5818 11.5174 21.503 9.21899 21.503V21.503V26.5645C12.8784 26.5645 16.4152 25.0375 18.9216 22.3752V22.3752C21.4635 19.6754 22.7354 16.1448 22.5031 12.4341V12.4341L17.4407 12.7498Z" fill="url(#paint1_linear)"/>
<path fill-rule="evenodd" clip-rule="evenodd" d="M9.09775 26.5645H9.25901V21.503H9.09775C7.40946 21.503 5.93219 20.318 5.66153 18.7469C5.46635 17.6153 5.94234 16.7334 6.24363 16.3084L2.10216 13.3861C0.799169 15.2245 0.288079 17.4329 0.662216 19.6049C1.35774 23.6375 4.90534 26.5645 9.09775 26.5645Z" fill="url(#paint2_linear)"/>
<path fill-rule="evenodd" clip-rule="evenodd" d="M6.21131 16.3529C7.76102 14.264 10.1412 13.0658 12.7415 13.0658C13.0174 13.0658 13.2952 13.0796 13.5541 13.1055C17.473 13.5191 21.1025 15.3012 23.774 18.1233L27.4612 14.6478C23.9591 10.9479 19.2093 8.61267 14.0745 8.07068C13.6346 8.02675 13.1862 8.00427 12.7415 8.00427C8.57888 8.00427 4.58146 10.0441 2.10229 13.3861L6.21131 16.3529Z" fill="url(#paint3_linear)"/>
<path d="M147.154 21.3973H149.236L151.061 17.3267H157.634L158.477 21.3973H160.559L156.933 4.78729H154.827L147.154 21.3973ZM151.833 15.5721L155.529 7.29049H155.576L157.284 15.5721H151.833Z" fill="black"/>
<path d="M163.342 21.3973H165.331L166.103 15.034H168.91C172.91 15.034 175.11 12.6946 175.11 9.04507C175.11 6.35472 173.776 4.78729 170.735 4.78729H165.377L163.342 21.3973ZM166.337 13.2093L167.155 6.58866H170.314C171.904 6.58866 173.027 7.43086 173.027 9.04507C173.027 11.712 171.577 13.2093 169.167 13.2093H166.337Z" fill="black"/>
<path d="M176.984 21.3973H178.996L181.031 4.78729H179.019L176.984 21.3973Z" fill="black"/>
<defs>
<linearGradient id="paint0_linear" x1="2.63222" y1="4.89421" x2="4.80297" y2="14.955" gradientUnits="userSpaceOnUse">
<stop stop-color="#88E766"/>
<stop offset="1" stop-color="#63DA90"/>
</linearGradient>
<linearGradient id="paint1_linear" x1="17.1892" y1="9.23282" x2="6.59684" y2="17.8678" gradientUnits="userSpaceOnUse">
<stop stop-color="#63DA90"/>
<stop offset="1" stop-color="#47D0AF"/>
</linearGradient>
<linearGradient id="paint2_linear" x1="9.10279" y1="19.8772" x2="4.45666" y2="17.3083" gradientUnits="userSpaceOnUse">
<stop stop-color="#47D0AF"/>
<stop offset="1" stop-color="#1FC2DD"/>
</linearGradient>
<linearGradient id="paint3_linear" x1="5.22684" y1="19.1529" x2="21.027" y2="26.3374" gradientUnits="userSpaceOnUse">
<stop stop-color="#1FC2DD"/>
<stop offset="1" stop-color="#00B7FF"/>
</linearGradient>
</defs>
</svg>
