<svg width="300" height="58" viewBox="0 0 300 58" fill="none" xmlns="http://www.w3.org/2000/svg">
<path d="M158.973 45.0287H148.728L141.63 34.7162L134.598 45.0287H124.353L135.268 29.2251L124.286 12.4841H134.598L141.63 23.4662L148.728 12.4841H158.973L147.991 29.2251L158.973 45.0287Z" fill="white"/>
<path d="M194.866 31.1002H170.089C170.29 32.1716 170.759 33.31 171.362 34.5154C171.964 35.7207 172.969 36.7252 174.174 37.4618C175.446 38.2654 176.786 38.6672 178.192 38.6672C180.335 38.6672 182.009 38.2654 183.214 37.5288C184.42 36.7922 185.491 35.7207 186.228 34.3814L193.929 35.9886C192.522 39.2698 190.446 41.8145 187.701 43.4886C184.955 45.1627 181.741 46.0332 178.125 46.0332C175.848 46.0332 173.705 45.6314 171.696 44.8279C169.621 44.0243 167.879 42.8189 166.339 41.2788C164.799 39.7386 163.594 37.9305 162.723 35.7877C161.853 33.6448 161.451 31.368 161.451 28.8904C161.451 26.4127 161.853 24.1359 162.723 21.993C163.594 19.8502 164.799 18.0422 166.339 16.502C167.879 14.9618 169.688 13.7564 171.763 12.8859C173.839 12.0154 175.982 11.6136 178.259 11.6136C180.402 11.6136 182.478 12.0154 184.42 12.8189C186.429 13.6225 188.17 14.7609 189.643 16.2341C191.116 17.7073 192.388 19.5154 193.259 21.5243C194.129 23.6002 194.665 25.81 194.732 28.2207V31.1002H194.866ZM174.643 19.9172C173.438 20.5198 172.433 21.2564 171.763 22.2609C171.094 23.1984 170.625 24.1359 170.424 25.0734H186.161C185.625 23.1314 184.688 21.6582 183.281 20.5868C181.875 19.5823 180.268 19.0466 178.46 19.0466C177.121 19.0466 175.848 19.3145 174.643 19.9172Z" fill="white"/>
<path d="M251.451 45.0287H242.344L228.75 12.4171H237.991L246.83 34.5153L255.67 12.4171H264.911L251.451 45.0287Z" fill="white"/>
<path d="M300 31.1002H275.223C275.424 32.1716 275.893 33.31 276.495 34.5154C277.098 35.7207 278.103 36.7252 279.308 37.4618C280.58 38.2654 281.92 38.6672 283.326 38.6672C285.469 38.6672 287.143 38.2654 288.348 37.5288C289.553 36.7922 290.625 35.7207 291.361 34.3814L299.062 35.9886C297.656 39.2698 295.58 41.8145 292.835 43.4886C290.089 45.1627 286.875 46.0332 283.259 46.0332C280.982 46.0332 278.839 45.6314 276.83 44.8279C274.754 44.0243 273.013 42.8189 271.473 41.2788C269.933 39.7386 268.728 37.9305 267.857 35.7877C266.986 33.6448 266.585 31.368 266.585 28.8904C266.585 26.4127 266.986 24.1359 267.857 21.993C268.728 19.8502 269.933 18.0422 271.473 16.502C273.013 14.9618 274.821 13.7564 276.897 12.8859C278.973 12.0154 281.116 11.6136 283.393 11.6136C285.536 11.6136 287.545 12.0154 289.553 12.8189C291.562 13.6225 293.303 14.7609 294.777 16.2341C296.25 17.7073 297.522 19.5154 298.393 21.5243C299.263 23.6002 299.799 25.81 299.866 28.2207V31.1002H300ZM279.71 19.9172C278.504 20.5198 277.5 21.2564 276.83 22.2609C276.161 23.1984 275.692 24.1359 275.491 25.0734H291.228C290.692 23.1314 289.754 21.6582 288.348 20.5868C286.942 19.5823 285.335 19.0466 283.527 19.0466C282.254 19.0466 280.982 19.3145 279.71 19.9172Z" fill="white"/>
<path d="M209.598 45.0287H200.759V29.1582C200.759 28.0868 200.826 21.7251 205.38 17.0376C207.455 14.8948 211.205 12.4171 217.433 12.4171H223.996V20.9216H217.433C214.822 20.9216 212.947 21.5912 211.674 22.8635C209.598 25.0064 209.531 28.9573 209.598 28.9573C209.598 29.0243 209.598 29.0243 209.598 29.0912V45.0287Z" fill="white"/>
<path d="M116.652 32.5734V12.4841H107.813V14.0913C105.268 12.4172 102.255 11.4797 99.0402 11.4797C89.8661 11.4797 82.4331 19.1806 82.4331 28.7565C82.4331 38.3323 89.8661 46.0332 99.0402 46.0332C103.661 46.0332 107.813 44.0913 110.826 40.944C113.17 43.7565 116.719 45.4975 120.603 45.4975V36.6582C118.46 36.6582 116.652 34.8502 116.652 32.5734ZM99.9777 38.6002C94.8885 38.6002 90.8036 34.1806 90.8036 28.8234C90.8036 23.3993 94.8885 19.0466 99.9777 19.0466C103.259 19.0466 106.138 20.9216 107.746 23.6672V32.7073C107.746 33.1091 107.746 33.5109 107.813 33.9127C106.272 36.6582 103.326 38.6002 99.9777 38.6002Z" fill="white"/>
<path d="M48.0134 22.9975C46.875 17.4395 44.0625 12.2832 39.9777 8.26535C34.8884 3.31 28.192 0.363569 21.1607 0.028748C15 -0.239109 9.10714 1.36803 4.01786 4.71625C3.81696 4.91714 1.67411 6.39035 0 8.06446L7.76786 15.7654C8.37053 15.0957 9.50893 14.2921 10.0446 13.9573C13.192 11.8814 16.875 10.877 20.692 11.0109C26.0491 11.2787 30.8705 13.9573 33.9509 18.0421C32.7455 17.8412 31.5402 17.6404 30.3348 17.5064C29.3973 17.4395 28.3929 17.3725 27.4554 17.3725C18.4821 17.3725 9.91071 21.6582 4.55357 28.8904L4.48661 28.9573C1.67411 32.9082 0.602678 37.7296 1.40625 42.4171C2.87946 51.1225 10.5804 57.4841 19.6205 57.4841H19.8884C27.7902 57.4841 35.4241 54.2029 40.7812 48.4439C42.9911 46.0332 44.7991 43.3546 46.0714 40.4752C42.3884 36.3904 37.8348 34.6493 36.7634 34.3145C35.9598 36.7252 34.6205 39.002 32.8125 40.9439C29.3973 44.56 24.8437 46.5689 19.8884 46.5689H19.6205C16.0045 46.5689 12.7902 44.0243 12.1875 40.6091C11.7857 38.1984 12.7902 36.3234 13.3929 35.3859C16.7411 30.8993 21.8304 28.3546 27.4554 28.3546C28.058 28.3546 28.6607 28.3546 29.1964 28.4216C32.0759 28.7564 34.8884 29.3591 37.567 30.3636C37.567 30.3636 43.2589 32.4395 47.6786 35.9886C48.9509 36.993 50.1562 38.0645 51.2277 39.2698L59.1964 31.7698C55.9152 28.2207 52.1652 25.2743 48.0134 22.9975Z" fill="white"/>
</svg>
